PathFileType	4	(X/Y/Z)	SUBJ94_1_walk_RCNL2025.trc
DataRate	CameraRate	NumFrames	NumMarkers	Units	OrigDataRate	OrigDataStartFrame	OrigNumFrames
100	100	7	25	mm	100	1	382
Frame#	Time	R_Shoulder			L_Shoulder			C7			J_Notch			R_Elbow			L_Elbow			R_Wrist			L_Wrist			R_Asis			L_Asis			Sacral			Thoracic			Sternum			R_Thigh_Lateral			R_Knee_Lateral			R_Shank_Lateral			R_Ankle_Lateral			R_Heel			R_Toe			L_Thigh_Lateral			L_Knee_Lateral			L_Shank_Lateral			L_Ankle_Lateral			L_Heel			L_Toe		
		X1	Y1	Z1	X2	Y2	Z2	X3	Y3	Z3	X4	Y4	Z4	X5	Y5	Z5	X6	Y6	Z6	X7	Y7	Z7	X8	Y8	Z8	X9	Y9	Z9	X10	Y10	Z10	X11	Y11	Z11	X12	Y12	Z12	X13	Y13	Z13	X14	Y14	Z14	X15	Y15	Z15	X16	Y16	Z16	X17	Y17	Z17	X18	Y18	Z18	X19	Y19	Z19	X20	Y20	Z20	X21	Y21	Z21	X22	Y22	Z22	X23	Y23	Z23	X24	Y24	Z24	X25	Y25	Z25
1	0.00000000	-2679.245361	1261.297363	314.514099	-2721.401855	1256.331665	-62.638939	-2761.214355	1339.875732	131.839508	-2647.832275	1249.633667	117.832809	-2670.668457	992.469055	430.009369	-2818.731445	984.806458	-113.663086	-2529.615234	815.339264	439.166412	-2690.501709	794.669342	-151.550026	-2655.023193	864.948059	254.751709	-2655.923340	860.127930	30.727829	-2842.501465	927.572754	133.212784	-2826.396484	1138.296631	139.163956	-2610.978027	1055.379517	127.438675	-2742.060059	518.820801	312.207489	-2757.786865	425.887421	252.348114	-2775.170654	239.516068	279.035645	-2807.159424	41.050995	193.891525	-2852.415283	40.403316	148.039444	-2675.151123	25.878696	160.754822	-2610.887207	536.194153	-58.736462	-2590.890137	445.833405	-4.718783	-2665.033203	286.645844	-64.801559	-2772.545898	112.002007	34.524208	-2809.642334	115.940529	86.814575	-2666.611328	50.266598	50.664619
2	0.01000000	-2667.466309	1260.802002	314.305115	-2710.984131	1255.099121	-62.547501	-2749.932373	1339.080811	131.752213	-2636.866943	1248.474121	117.709770	-2656.483154	992.253174	430.266266	-2810.565918	984.260681	-112.726089	-2511.435059	818.160400	437.170288	-2684.926270	792.551819	-151.618027	-2644.854004	863.966064	255.366425	-2645.427246	859.450134	31.509680	-2832.245605	926.397827	133.190491	-2815.535889	1137.695679	139.631744	-2600.958984	1054.026489	127.913849	-2735.017334	518.250732	312.156311	-2753.223877	425.509583	252.314682	-2773.094482	239.382950	278.986267	-2807.062744	41.275360	193.646683	-2852.185791	40.912766	147.685699	-2675.035645	25.830732	160.674698	-2596.673828	537.235779	-58.213806	-2575.126953	447.161377	-4.239499	-2640.590088	283.539825	-64.684746	-2737.578613	103.002052	34.498302	-2774.545410	104.766899	87.092033	-2628.001465	47.803947	49.771641
3	0.02000000	-2655.675781	1260.136841	314.121948	-2700.744141	1253.635620	-62.460735	-2738.662598	1338.126709	131.665192	-2625.881836	1247.172729	117.529037	-2642.292236	991.898193	430.514008	-2802.438232	983.468933	-111.777679	-2493.497681	820.834808	435.113449	-2679.369629	790.289398	-151.757889	-2634.632812	862.851379	255.900650	-2634.810059	858.553894	32.190910	-2821.937744	924.983154	133.081573	-2804.634033	1136.909546	140.078018	-2590.892334	1052.510498	128.417053	-2727.920166	517.604126	312.136597	-2748.457764	425.118622	252.288177	-2770.919922	239.257736	278.957336	-2806.931396	41.553356	193.395157	-2851.948242	41.504044	147.334061	-2674.909912	25.751251	160.564835	-2583.136963	537.785645	-57.762096	-2560.189209	447.996033	-3.847975	-2616.507812	280.337738	-64.664330	-2701.860596	94.231812	34.486069	-2738.568359	93.880394	87.322189	-2588.994141	45.869038	48.855370
4	0.03000000	-2643.875488	1259.338257	313.958130	-2690.687012	1251.964966	-62.375519	-2727.396484	1337.030029	131.577393	-2614.871094	1245.741333	117.321571	-2628.075195	991.431641	430.745239	-2794.354736	982.441040	-110.799911	-2475.824097	823.348694	433.001587	-2673.820190	787.914215	-151.975204	-2624.386963	861.629211	256.355804	-2624.034912	857.491028	32.746613	-2811.564941	923.355835	132.872589	-2793.695557	1135.959595	140.499222	-2580.733154	1050.860596	128.918747	-2720.849609	516.910461	312.154449	-2743.515381	424.736084	252.266983	-2768.588379	239.160141	278.922577	-2806.774658	41.904644	193.133972	-2851.701416	42.194843	146.974686	-2674.778809	25.649542	160.440475	-2570.299316	537.788818	-57.373909	-2546.072998	448.309296	-3.537330	-2592.899658	277.143494	-64.754402	-2665.520996	85.921600	34.466190	-2701.864258	83.504684	87.470490	-2549.753418	44.643661	47.959557
5	0.04000000	-2632.061035	1258.443359	313.795074	-2680.811768	1250.117432	-62.292294	-2716.124756	1335.808472	131.482300	-2603.826660	1244.189575	117.099197	-2613.827637	990.885010	430.951752	-2786.322510	981.195557	-109.772911	-2458.432983	825.694702	430.842194	-2668.267090	785.462280	-152.275421	-2614.148682	860.323914	256.750366	-2613.075439	856.312683	33.174236	-2801.115234	921.547607	132.546158	-2782.726318	1134.870972	140.892700	-2570.435547	1049.110718	129.395126	-2713.863037	516.206177	312.208405	-2738.427002	424.386078	252.247620	-2766.094482	239.115173	278.865570	-2806.601074	42.346458	192.856613	-2851.440674	43.005718	146.593689	-2674.647461	25.539139	160.322769	-2558.173340	537.205750	-57.051346	-2532.752930	448.080109	-3.305420	-2569.847412	274.034393	-64.962700	-2628.755371	78.302719	34.410587	-2664.657471	73.863365	87.514877	-2510.503906	44.292484	47.163113
6	0.05000000	-2620.222412	1257.483765	313.604431	-2671.111328	1248.127197	-62.216393	-2704.839844	1334.480225	131.369202	-2592.739990	1242.526123	116.856644	-2599.560059	990.290710	431.124115	-2778.348633	979.758606	-108.677971	-2441.341064	827.871796	428.645966	-2662.695435	782.966827	-152.657845	-2603.931396	858.969360	257.108521	-2601.917236	855.068665	33.491848	-2790.577393	919.592957	132.083893	-2771.733154	1133.670654	141.257385	-2559.963623	1047.292236	129.831253	-2706.989014	515.532593	312.291290	-2733.218018	424.092224	252.222733	-2763.480957	239.152222	278.780243	-2806.414795	42.892590	192.553558	-2851.157715	43.958385	146.175064	-2674.520264	25.430981	160.228470	-2546.757080	536.019531	-56.811302	-2520.180176	447.298920	-3.154009	-2547.394531	271.063232	-65.288490	-2591.827148	71.578743	34.298889	-2627.257080	65.161156	87.437454	-2471.536133	44.942722	46.565430
7	0.06000000	-2608.347168	1256.489136	313.356781	-2661.569092	1246.028931	-62.157932	-2693.537354	1333.062988	131.224030	-2581.605225	1240.762207	116.579681	-2585.292480	989.680420	431.252777	-2770.436523	978.161560	-107.500626	-2424.564575	829.884491	426.426865	-2657.083374	780.456085	-153.113228	-2593.724854	857.607056	257.449432	-2590.557617	853.805176	33.730991	-2779.939209	917.528625	131.469696	-2760.720703	1132.386719	141.593597	-2549.302002	1045.429077	130.219925	-2700.225586	514.929321	312.393005	-2727.898926	423.875458	252.182632	-2760.814453	239.303467	278.669128	-2806.214111	43.555141	192.215302	-2850.843018	45.073929	145.704483	-2674.398193	25.330154	160.165802	-2536.030762	534.240967	-56.687199	-2508.275879	445.975342	-3.081730	-2525.544922	268.269043	-65.718262	-2555.067139	65.902725	34.124901	-2590.051758	57.557858	87.220009	-2433.204590	46.657776	46.267704
